<svg width="32" height="32" viewBox="0 0 32 32" fill="none" xmlns="http://www.w3.org/2000/svg">
<path d="M24.823 6.39218C24.823 6.74742 24.5339 7.03808 24.2127 7.03808H13.8697L19.1054 13.368H20.9042C21.3539 13.368 21.6751 13.6263 21.6751 13.9816V17.7602C21.6751 18.1154 21.3539 18.4061 20.9042 18.4061H11.0109V29.0959C11.0109 29.4511 10.7539 29.7741 10.4006 29.7741H6.64242C6.28909 29.7741 6 29.4511 6 29.0959V13.368H12.5527L6 5.42331V2.6782C6 2.29066 6.28909 2 6.64242 2H24.2127C24.5339 2 24.823 2.29066 24.823 2.6782V6.39218Z" fill="#182230"/>
<path d="M24.823 6.39218C24.823 6.74743 24.5339 7.03808 24.2127 7.03808H13.8697L19.1054 13.368H20.9042C21.3539 13.368 21.6751 13.6264 21.6751 13.9816V17.7602C21.6751 18.1154 21.3539 18.4061 20.9042 18.4061L11.3868 18.109L11.0109 17.4308C11.0109 17.786 10.7539 18.109 10.4006 18.109H6.64242C6.28909 18.109 6 17.786 6 17.4308V13.368H12.5527L6 5.42331V2.6782C6 2.29066 6.28909 2 6.64242 2H24.2127C24.5339 2 24.823 2.29066 24.823 2.6782V6.39218Z" fill="#98A2B3"/>
<path d="M6.00024 4C6.00024 2.89543 6.89567 2 8.00024 2H22.7847C23.8893 2 24.7847 2.89543 24.7847 4V4.99933C24.7847 6.1039 23.8893 6.99933 22.7847 6.99933H7.30238L6.69085 6.30498L6.00024 5.47176V4Z" fill="#F97066"/>
<path d="M6 13.3875H19.7458C20.8504 13.3875 21.7458 14.2829 21.7458 15.3875V16.3868C21.7458 17.4914 20.8504 18.3868 19.7458 18.3868H6V13.3875Z" fill="#F97066"/>
</svg>
