<svg xmlns="http://www.w3.org/2000/svg" width="120" height="32" fill="none" viewBox="0 0 120 32">
  <path fill="#155EEF" d="M62.535 5.758v20.19h4.864c.52 0 .928.331.928.737v4.319c0 .406-.408.738-.928.738H51.655a.743.743 0 0 1-.743-.738v-4.319c0-.406.334-.738.743-.738h5.05V5.757h-5.05c-.409 0-.743-.294-.743-.7V.738c0-.406.334-.738.743-.738h15.744c.52 0 .928.332.928.738v4.319c0 .406-.408.7-.928.7h-4.864Z"/>
  <path fill="#182230" d="M21.76 5.02c0 .406-.335.738-.706.738H9.097l6.053 7.234h2.08c.52 0 .89.295.89.701v4.319c0 .406-.37.738-.89.738H5.793v12.217c0 .406-.297.775-.706.775H.743c-.409 0-.743-.37-.743-.775V12.992h7.575L0 3.912V.775C0 .332.334 0 .743 0h20.311c.372 0 .706.332.706.775V5.02Z"/>
  <path fill="#98A2B3" d="M21.76 5.02c0 .406-.335.738-.706.738H9.097l6.053 7.234h2.08c.52 0 .89.295.89.701v4.319c0 .406-.37.738-.89.738l-11.003-.34-.434-.775c0 .406-.297.775-.706.775H.743c-.409 0-.743-.369-.743-.775v-4.643h7.575L0 3.912V.775C0 .332.334 0 .743 0h20.311c.372 0 .706.332.706.775V5.02Z"/>
  <path fill="#155EEF" d="M0 2a2 2 0 0 1 2-2h17.715a2 2 0 0 1 2 2v1.714a2 2 0 0 1-2 2H1.505L.8 4.92 0 3.968V2Zm0 11.014h16.202a2 2 0 0 1 2 2v1.714a2 2 0 0 1-2 2H0v-5.714Z"/>
  <path fill="#182230" d="M47.307 5.02c0 .406-.334.738-.706.738H34.645l6.052 7.234h2.08c.52 0 .89.295.89.701v4.319c0 .406-.37.738-.89.738H31.34v12.217c0 .406-.297.775-.706.775H26.29c-.409 0-.743-.37-.743-.775V12.992h7.575l-7.575-9.08V.775c0-.443.334-.775.743-.775H46.6c.372 0 .706.332.706.775V5.02Z"/>
  <path fill="#98A2B3" d="M47.307 5.02c0 .406-.334.738-.706.738H34.645l6.052 7.234h2.08c.52 0 .89.295.89.701v4.319c0 .406-.37.738-.89.738l-11.003-.34-.434-.775c0 .406-.297.775-.706.775H26.29c-.409 0-.743-.369-.743-.775v-4.643h7.575l-7.575-9.08V.775c0-.443.334-.775.743-.775H46.6c.372 0 .706.332.706.775V5.02Z"/>
  <path fill="#155EEF" d="M25.547 2a2 2 0 0 1 2-2h17.716a2 2 0 0 1 2 2v1.714a2 2 0 0 1-2 2h-18.21l-.707-.794-.799-.952V2Zm0 11.014H41.75a2 2 0 0 1 2 2v1.714a2 2 0 0 1-2 2H25.547v-5.714ZM93.839 32 77.898 14.77v16.275c0 .404-.304.697-.712.697h-4.388c-.408 0-.734-.293-.734-.697V0l16.525 17.76V1.484c0-.404.334-.735.705-.735l3.84-.529c.371 0 .705.331.705.735V32Z"/>
  <path fill="#182230" d="M73.798 10.339c-.618-.668-1.734-.23-1.734.679v19.724a1 1 0 0 0 1 1h3.831a1 1 0 0 0 1-1V14.747l-.975-1.021-.784-.86-2.338-2.527Zm18.326 11.157c.624.647 1.72.205 1.72-.695V1a1 1 0 0 0-1-1h-3.766a1 1 0 0 0-1 1v16.273l.465.525-.136-.154 3.717 3.852Z"/>
  <path fill="#155EEF" d="m119.995 32-15.94-17.23v16.275c0 .404-.305.697-.712.697h-4.389c-.407 0-.733-.293-.733-.697V0l16.525 17.76V1.484c0-.404.333-.735.704-.735l3.841-.529c.37 0 .704.331.704.735V32Z"/>
  <path fill="#182230" d="M99.954 10.339c-.617-.668-1.733-.23-1.733.679v19.724a1 1 0 0 0 1 1h3.83a1 1 0 0 0 1-1V14.747l-.975-1.021-.783-.86-2.339-2.527Zm18.326 11.157c.625.647 1.72.205 1.72-.695V1a1 1 0 0 0-1-1h-3.765a1 1 0 0 0-1 1v16.273l.465.525-.137-.154 3.717 3.852Z"/>
</svg>
